<mxfile host="app.diagrams.net" modified="2020-07-20T08:14:41.568Z" agent="5.0 (Windows NT 10.0; Win64; x64) AppleWebKit/537.36 (KHTML, like Gecko) Chrome/83.0.4103.106 Safari/537.36" etag="HjZAGUGaNIoNPtAQKeiU" version="13.4.6" type="github">
  <diagram id="kgpKYQtTHZ0yAKxKKP6v" name="Page-1">
    <mxGraphModel dx="2272" dy="1813" grid="1" gridSize="10" guides="1" tooltips="1" connect="1" arrows="1" fold="1" page="1" pageScale="1" pageWidth="850" pageHeight="1100" math="0" shadow="0">
      <root>
        <mxCell id="0" />
        <mxCell id="1" parent="0" />
        <mxCell id="3nuBFxr9cyL0pnOWT2aG-1" value="WebView" style="shape=umlLifeline;perimeter=lifelinePerimeter;container=1;collapsible=0;recursiveResize=0;rounded=0;shadow=0;strokeWidth=1;" parent="1" vertex="1">
          <mxGeometry x="70" y="60" width="100" height="540" as="geometry" />
        </mxCell>
        <mxCell id="3nuBFxr9cyL0pnOWT2aG-2" value="" style="points=[];perimeter=orthogonalPerimeter;rounded=0;shadow=0;strokeWidth=1;" parent="3nuBFxr9cyL0pnOWT2aG-1" vertex="1">
          <mxGeometry x="45" y="70" width="10" height="190" as="geometry" />
        </mxCell>
        <mxCell id="3nuBFxr9cyL0pnOWT2aG-3" value="logs in" style="verticalAlign=bottom;startArrow=oval;endArrow=block;startSize=8;shadow=0;strokeWidth=1;" parent="3nuBFxr9cyL0pnOWT2aG-1" target="3nuBFxr9cyL0pnOWT2aG-2" edge="1">
          <mxGeometry relative="1" as="geometry">
            <mxPoint x="-100" y="70" as="sourcePoint" />
          </mxGeometry>
        </mxCell>
        <mxCell id="3nuBFxr9cyL0pnOWT2aG-4" value="" style="points=[];perimeter=orthogonalPerimeter;rounded=0;shadow=0;strokeWidth=1;" parent="3nuBFxr9cyL0pnOWT2aG-1" vertex="1">
          <mxGeometry x="45" y="170" width="10" height="80" as="geometry" />
        </mxCell>
        <mxCell id="3nuBFxr9cyL0pnOWT2aG-5" value="DeviceRegistration" style="shape=umlLifeline;perimeter=lifelinePerimeter;container=1;collapsible=0;recursiveResize=0;rounded=0;shadow=0;strokeWidth=1;" parent="1" vertex="1">
          <mxGeometry x="220" y="60" width="100" height="530" as="geometry" />
        </mxCell>
        <mxCell id="3nuBFxr9cyL0pnOWT2aG-6" value="" style="points=[];perimeter=orthogonalPerimeter;rounded=0;shadow=0;strokeWidth=1;" parent="3nuBFxr9cyL0pnOWT2aG-5" vertex="1">
          <mxGeometry x="45" y="80" width="10" height="160" as="geometry" />
        </mxCell>
        <mxCell id="Mg3NlpapDC915E2sUTMI-25" value="" style="points=[];perimeter=orthogonalPerimeter;rounded=0;shadow=0;strokeWidth=1;" vertex="1" parent="3nuBFxr9cyL0pnOWT2aG-5">
          <mxGeometry x="45" y="340" width="10" height="90" as="geometry" />
        </mxCell>
        <mxCell id="3nuBFxr9cyL0pnOWT2aG-8" value="auntenticate" style="verticalAlign=bottom;endArrow=block;entryX=0.5;entryY=0.006;shadow=0;strokeWidth=1;entryDx=0;entryDy=0;entryPerimeter=0;" parent="1" source="3nuBFxr9cyL0pnOWT2aG-2" target="Mg3NlpapDC915E2sUTMI-3" edge="1">
          <mxGeometry relative="1" as="geometry">
            <mxPoint x="275" y="160" as="sourcePoint" />
          </mxGeometry>
        </mxCell>
        <mxCell id="Mg3NlpapDC915E2sUTMI-1" value="Actor" style="shape=umlActor;verticalLabelPosition=bottom;verticalAlign=top;html=1;outlineConnect=0;" vertex="1" parent="1">
          <mxGeometry x="-150" y="210" width="40" height="80" as="geometry" />
        </mxCell>
        <mxCell id="Mg3NlpapDC915E2sUTMI-2" value="TenantMgmtService" style="shape=umlLifeline;perimeter=lifelinePerimeter;container=1;collapsible=0;recursiveResize=0;rounded=0;shadow=0;strokeWidth=1;" vertex="1" parent="1">
          <mxGeometry x="510" y="60" width="120" height="540" as="geometry" />
        </mxCell>
        <mxCell id="Mg3NlpapDC915E2sUTMI-3" value="" style="points=[];perimeter=orthogonalPerimeter;rounded=0;shadow=0;strokeWidth=1;" vertex="1" parent="Mg3NlpapDC915E2sUTMI-2">
          <mxGeometry x="45" y="80" width="10" height="160" as="geometry" />
        </mxCell>
        <mxCell id="Mg3NlpapDC915E2sUTMI-27" value="" style="points=[];perimeter=orthogonalPerimeter;rounded=0;shadow=0;strokeWidth=1;" vertex="1" parent="Mg3NlpapDC915E2sUTMI-2">
          <mxGeometry x="55" y="350" width="10" height="70" as="geometry" />
        </mxCell>
        <mxCell id="Mg3NlpapDC915E2sUTMI-4" value="&lt;font style=&quot;font-size: 18px&quot; color=&quot;#0000ff&quot;&gt;User access the remote Device&amp;nbsp; through WebView&lt;/font&gt;" style="text;html=1;strokeColor=none;fillColor=none;align=center;verticalAlign=middle;whiteSpace=wrap;rounded=0;" vertex="1" parent="1">
          <mxGeometry x="10" y="-50" width="450" height="20" as="geometry" />
        </mxCell>
        <mxCell id="Mg3NlpapDC915E2sUTMI-5" value="ReadServer" style="shape=umlLifeline;perimeter=lifelinePerimeter;container=1;collapsible=0;recursiveResize=0;rounded=0;shadow=0;strokeWidth=1;" vertex="1" parent="1">
          <mxGeometry x="350" y="60" width="120" height="300" as="geometry" />
        </mxCell>
        <mxCell id="Mg3NlpapDC915E2sUTMI-7" value="RemoteDeviceHostService" style="shape=umlLifeline;perimeter=lifelinePerimeter;container=1;collapsible=0;recursiveResize=0;rounded=0;shadow=0;strokeWidth=1;" vertex="1" parent="1">
          <mxGeometry x="680" y="60" width="140" height="700" as="geometry" />
        </mxCell>
        <mxCell id="Mg3NlpapDC915E2sUTMI-8" value="" style="points=[];perimeter=orthogonalPerimeter;rounded=0;shadow=0;strokeWidth=1;" vertex="1" parent="Mg3NlpapDC915E2sUTMI-7">
          <mxGeometry x="65" y="470" width="10" height="150" as="geometry" />
        </mxCell>
        <mxCell id="Mg3NlpapDC915E2sUTMI-9" value="authorizing token" style="verticalAlign=bottom;endArrow=block;shadow=0;strokeWidth=1;" edge="1" parent="1" source="Mg3NlpapDC915E2sUTMI-2" target="3nuBFxr9cyL0pnOWT2aG-2">
          <mxGeometry relative="1" as="geometry">
            <mxPoint x="275" y="190" as="sourcePoint" />
            <mxPoint x="140" y="190" as="targetPoint" />
            <Array as="points">
              <mxPoint x="330" y="160" />
            </Array>
          </mxGeometry>
        </mxCell>
        <mxCell id="Mg3NlpapDC915E2sUTMI-10" value="getDeviceList" style="verticalAlign=bottom;endArrow=block;shadow=0;strokeWidth=1;" edge="1" parent="1" source="3nuBFxr9cyL0pnOWT2aG-1">
          <mxGeometry x="0.0018" relative="1" as="geometry">
            <mxPoint x="150" y="170.00000000000003" as="sourcePoint" />
            <mxPoint x="397" y="180" as="targetPoint" />
            <Array as="points">
              <mxPoint x="320" y="180" />
            </Array>
            <mxPoint as="offset" />
          </mxGeometry>
        </mxCell>
        <mxCell id="Mg3NlpapDC915E2sUTMI-11" value="validate&lt;&lt;Token&gt;&gt;" style="verticalAlign=bottom;endArrow=block;shadow=0;strokeWidth=1;" edge="1" parent="1" source="Mg3NlpapDC915E2sUTMI-6">
          <mxGeometry x="0.0018" relative="1" as="geometry">
            <mxPoint x="400" y="190" as="sourcePoint" />
            <mxPoint x="550" y="190" as="targetPoint" />
            <Array as="points">
              <mxPoint x="520" y="190" />
            </Array>
            <mxPoint as="offset" />
          </mxGeometry>
        </mxCell>
        <mxCell id="Mg3NlpapDC915E2sUTMI-12" value="callback" style="verticalAlign=bottom;endArrow=block;shadow=0;strokeWidth=1;exitX=0.1;exitY=0.431;exitDx=0;exitDy=0;exitPerimeter=0;" edge="1" parent="1" source="Mg3NlpapDC915E2sUTMI-3" target="Mg3NlpapDC915E2sUTMI-6">
          <mxGeometry relative="1" as="geometry">
            <mxPoint x="550" y="209.5" as="sourcePoint" />
            <mxPoint x="410" y="209.5" as="targetPoint" />
          </mxGeometry>
        </mxCell>
        <mxCell id="Mg3NlpapDC915E2sUTMI-13" value="returnDeviceList" style="verticalAlign=bottom;endArrow=block;shadow=0;strokeWidth=1;exitX=0.1;exitY=0.431;exitDx=0;exitDy=0;exitPerimeter=0;" edge="1" parent="1" target="3nuBFxr9cyL0pnOWT2aG-1">
          <mxGeometry x="-0.1444" y="-9" relative="1" as="geometry">
            <mxPoint x="400" y="218.96000000000004" as="sourcePoint" />
            <mxPoint x="240" y="221.03999999999996" as="targetPoint" />
            <mxPoint as="offset" />
          </mxGeometry>
        </mxCell>
        <mxCell id="Mg3NlpapDC915E2sUTMI-14" value="" style="endArrow=classic;html=1;entryX=0.9;entryY=0.738;entryDx=0;entryDy=0;entryPerimeter=0;" edge="1" parent="1">
          <mxGeometry width="50" height="50" relative="1" as="geometry">
            <mxPoint x="115" y="421.91999999999996" as="sourcePoint" />
            <mxPoint x="269.5" y="419.9999999999999" as="targetPoint" />
            <Array as="points">
              <mxPoint x="175.5" y="421.91999999999996" />
            </Array>
          </mxGeometry>
        </mxCell>
        <mxCell id="Mg3NlpapDC915E2sUTMI-19" value="getDeviceDetails" style="edgeLabel;html=1;align=center;verticalAlign=middle;resizable=0;points=[];" vertex="1" connectable="0" parent="Mg3NlpapDC915E2sUTMI-14">
          <mxGeometry x="-0.0624" y="-3" relative="1" as="geometry">
            <mxPoint y="-12.76" as="offset" />
          </mxGeometry>
        </mxCell>
        <mxCell id="Mg3NlpapDC915E2sUTMI-15" value="" style="endArrow=classic;html=1;" edge="1" parent="1">
          <mxGeometry width="50" height="50" relative="1" as="geometry">
            <mxPoint x="-40" y="430" as="sourcePoint" />
            <mxPoint x="110" y="430" as="targetPoint" />
          </mxGeometry>
        </mxCell>
        <mxCell id="Mg3NlpapDC915E2sUTMI-17" value="accessDeviceRemoteViewt" style="edgeLabel;html=1;align=center;verticalAlign=middle;resizable=0;points=[];" vertex="1" connectable="0" parent="Mg3NlpapDC915E2sUTMI-15">
          <mxGeometry x="-0.4571" y="-3" relative="1" as="geometry">
            <mxPoint x="29" y="-13" as="offset" />
          </mxGeometry>
        </mxCell>
        <mxCell id="Mg3NlpapDC915E2sUTMI-18" value="returnDeviceDetails" style="verticalAlign=bottom;endArrow=block;entryX=0.5;entryY=0.798;shadow=0;strokeWidth=1;entryDx=0;entryDy=0;entryPerimeter=0;" edge="1" parent="1" source="3nuBFxr9cyL0pnOWT2aG-5" target="3nuBFxr9cyL0pnOWT2aG-1">
          <mxGeometry x="0.2018" y="-11" relative="1" as="geometry">
            <mxPoint x="280" y="280.00000000000006" as="sourcePoint" />
            <mxPoint x="120" y="282.08" as="targetPoint" />
            <Array as="points">
              <mxPoint x="270" y="490" />
            </Array>
            <mxPoint as="offset" />
          </mxGeometry>
        </mxCell>
        <mxCell id="Mg3NlpapDC915E2sUTMI-20" value="" style="endArrow=classic;html=1;exitX=0.9;exitY=0.389;exitDx=0;exitDy=0;exitPerimeter=0;" edge="1" parent="1" source="Mg3NlpapDC915E2sUTMI-25" target="Mg3NlpapDC915E2sUTMI-2">
          <mxGeometry width="50" height="50" relative="1" as="geometry">
            <mxPoint x="400" y="290" as="sourcePoint" />
            <mxPoint x="560" y="270" as="targetPoint" />
            <Array as="points">
              <mxPoint x="420" y="435" />
            </Array>
          </mxGeometry>
        </mxCell>
        <mxCell id="Mg3NlpapDC915E2sUTMI-21" value="validate&lt;&lt;token&gt;&gt;" style="verticalAlign=bottom;endArrow=block;shadow=0;strokeWidth=1;" edge="1" parent="1" source="Mg3NlpapDC915E2sUTMI-2" target="Mg3NlpapDC915E2sUTMI-25">
          <mxGeometry x="0.0832" y="-49" relative="1" as="geometry">
            <mxPoint x="560" y="280.00000000000006" as="sourcePoint" />
            <mxPoint x="400" y="282.08" as="targetPoint" />
            <Array as="points">
              <mxPoint x="410" y="468" />
            </Array>
            <mxPoint x="11" y="1" as="offset" />
          </mxGeometry>
        </mxCell>
        <mxCell id="Mg3NlpapDC915E2sUTMI-22" value="" style="endArrow=classic;html=1;" edge="1" parent="1">
          <mxGeometry width="50" height="50" relative="1" as="geometry">
            <mxPoint x="115" y="560" as="sourcePoint" />
            <mxPoint x="739.5" y="560" as="targetPoint" />
          </mxGeometry>
        </mxCell>
        <mxCell id="Mg3NlpapDC915E2sUTMI-23" value="accessDeviceRemoteView" style="edgeLabel;html=1;align=center;verticalAlign=middle;resizable=0;points=[];" vertex="1" connectable="0" parent="Mg3NlpapDC915E2sUTMI-22">
          <mxGeometry x="-0.4571" y="-3" relative="1" as="geometry">
            <mxPoint x="29" y="-13" as="offset" />
          </mxGeometry>
        </mxCell>
        <mxCell id="Mg3NlpapDC915E2sUTMI-24" value="" style="points=[];perimeter=orthogonalPerimeter;rounded=0;shadow=0;strokeWidth=1;" vertex="1" parent="1">
          <mxGeometry x="110" y="370" width="10" height="190" as="geometry" />
        </mxCell>
        <mxCell id="Mg3NlpapDC915E2sUTMI-6" value="" style="points=[];perimeter=orthogonalPerimeter;rounded=0;shadow=0;strokeWidth=1;" vertex="1" parent="1">
          <mxGeometry x="405" y="140" width="10" height="120" as="geometry" />
        </mxCell>
        <mxCell id="Mg3NlpapDC915E2sUTMI-28" value="validate&lt;&lt;Token&gt;&gt;" style="verticalAlign=bottom;endArrow=block;shadow=0;strokeWidth=1;" edge="1" parent="1" target="Mg3NlpapDC915E2sUTMI-6">
          <mxGeometry x="0.0018" relative="1" as="geometry">
            <mxPoint x="400" y="190" as="sourcePoint" />
            <mxPoint x="550" y="190" as="targetPoint" />
            <Array as="points" />
            <mxPoint as="offset" />
          </mxGeometry>
        </mxCell>
      </root>
    </mxGraphModel>
  </diagram>
</mxfile>
